# xmcd
#
# Track frame offsets: 
#        150
#        14019
#        31093
#        45459
#        61570
#        81686
#        97987
#        114588
#        129736
#        143393
#        161061
#        183489
#        199555
#        212233
#        225452
#        240164
#        255889
#        274407
#        288457
#        302210
#        315554
#        329480
#
# Disc length: 4638 seconds
#
# Revision: 1
# Processed by: cddbd v1.5.1PL0 Copyright (c) Steve Scherf et al.
# Submitted via: ExactAudioCopy v0.95a5
#
DISCID=2f121c16
DTITLE=Various Artist - The 4 Box Volume 11 Cd1
DYEAR=1900
DGENRE=Acid Jazz
TTITLE0=Armand Van Helden - My My My
TTITLE1=Ozone - Despre Tine
TTITLE2=Ashlee Simpson - Pieces Of Me
TTITLE3=Natasha Bedingfield - These Words
TTITLE4=The Streets - Dry Your Eyes
TTITLE5=Moonlight Vs Azotto - San Salvador
TTITLE6=Lunedi - Stasera La Luna
TTITLE7=Jules and Raoul - The Sound Of Light
TTITLE8=David Christie - Sadle Up 2004
TTITLE9=Pablo Peetey - Freek A Leek
TTITLE10=Dido - Sand In My Shoes
TTITLE11=BS One - Shake It
TTITLE12=Eric Prydz - Call On Me
TTITLE13=Karin De Ponti - Angels
TTITLE14=Morillo - Breakdownthedoors
TTITLE15=Bryan Adams - Open Road
TTITLE16=K Maro - Femme Like You
TTITLE17=Monica Kruse - Latin Lovers
TTITLE18=Deejay Robin - The Man With The Horns
TTITLE19=Van Bill - Als Ik Jou Wil
TTITLE20=Djumbo - Hide And Seek
TTITLE21=Marco Borsato Vs Ali B - Wat Zou Je Doen
EXTD=
EXTT0=
EXTT1=
EXTT2=
EXTT3=
EXTT4=
EXTT5=
EXTT6=
EXTT7=
EXTT8=
EXTT9=
EXTT10=
EXTT11=
EXTT12=
EXTT13=
EXTT14=
EXTT15=
EXTT16=
EXTT17=
EXTT18=
EXTT19=
EXTT20=
EXTT21=
PLAYORDER=
